<svg viewBox="0 0 177.4 132.57" xmlns="http://www.w3.org/2000/svg"><path d="m163.08 80.92c5.1 3.77 8.31 9.36 13.11 13.48 2.41 2.08 1 4.89-2.35 5a11.24 11.24 0 0 1 -9.68-4.28c-2.62-3.29-4.93-3.08-7.73 0-5.87 6.35-11.32 13.19-18.27 18.39-25 18.68-53 22.68-82.87 16.11-14.84-3.27-29-8.63-40.94-18.57-2.5-2.07-4.47-1.63-6.14 1.1a9.35 9.35 0 0 1 -2.21 2.64 3.89 3.89 0 0 1 -5 .21c-1.57-1.28-.83-3.17.1-4.49 2.86-4.07 5.87-8 8.9-12a2.77 2.77 0 0 1 3.58-.82 2.34 2.34 0 0 1 1.58 2.91 2 2 0 0 1 -.16.4c-1.58 4.34 1.43 6.45 4.16 8.61 10 7.91 21.67 12.26 33.9 15.06a94.45 94.45 0 0 0 52.17-2.78c4.37-1.56 8.89-2.72 13-5.06 10.78-5.11 19.56-12.68 27-21.92 2.76-3.88 6.34-7.34 6.13-12.69-.09-2.09 1.21-2.78 3.24-2.79 2.81-.04 5.76-.01 8.48 1.49z" fill="#070707"/><path d="m23.48 27c-7.71-.08-14.35-5.15-14.38-11 0-5.17 4.39-9 10.4-9.06 7.69-.06 14.27 5 14.25 11-.02 5.55-4.06 9.06-10.27 9.06z" fill="#060606"/><path d="m126.11 18.89a18.43 18.43 0 0 1 -11.11-3.54c-2.66-1.83-4.46-4-3.88-7.38a8.81 8.81 0 0 1 5.88-7.31c7.3-2.66 17.11 3.05 18.41 10.68.77 4.47-2.95 7.49-9.3 7.55z" fill="#070707"/></svg>