<svg id="BG" xmlns="http://www.w3.org/2000/svg" xmlns:xlink="http://www.w3.org/1999/xlink" viewBox="0 0 1920 1136"><defs><style>.cls-1{fill:none;}.cls-2{clip-path:url(#clip-path);}.cls-3{fill:url(#linear-gradient);}.cls-4{fill:url(#linear-gradient-2);}.cls-5{fill:url(#linear-gradient-3);}</style><clipPath id="clip-path"><rect class="cls-1" width="1920" height="1136"/></clipPath><linearGradient id="linear-gradient" x1="94.42" y1="878.56" x2="1646.66" y2="321.62" gradientUnits="userSpaceOnUse"><stop offset="0" stop-color="#7c90ff"/><stop offset="1" stop-color="#5d4dff"/></linearGradient><linearGradient id="linear-gradient-2" x1="1974.34" y1="47.14" x2="1237.4" y2="561.73" xlink:href="#linear-gradient"/><linearGradient id="linear-gradient-3" x1="1472.68" y1="388.63" x2="473.15" y2="1100.16" gradientUnits="userSpaceOnUse"><stop offset="0" stop-color="#46bed3"/><stop offset="1" stop-color="#277be2"/></linearGradient></defs><g class="cls-2"><rect class="cls-3" x="-23.91" y="-14.14" width="1967.79" height="1164.27"/><path class="cls-4" d="M855.58-14.14c-29,0-44.32,112.76-49.31,134.07-15.61,66.59-32.57,133.18-58.62,196.58-30.48,74.23-74.21,144.54-136.11,195.61-98,80.84-229.32,99.94-350.71,70.93-93.73-22.39-185-48-282.22-33.25l-2.52.41v539.92c91.52,48.15,231.43,44.61,335.19,38.87,129.74-7.19,254.25-57.35,362.9-126.71a1061.55,1061.55,0,0,0,155.13-121c44.59-41.87,80.63-93.8,132.09-127.37,71.56-46.7,175-74.51,260.15-71.61,28,1,56.36,5.77,81.19,18.73s45.87,34.83,53.48,61.78c12.8,45.38-14.44,93-49.09,125-87.69,81-326,81.57-312,262.35h677.45a328.17,328.17,0,0,0,16-37.34c40.69-113.51-9.62-228.7-43-336.63-18.44-59.59-30.79-123.84-14.37-184,15.54-56.91,55.52-104.43,101.49-141.41,34.73-27.93,73.12-50.68,111.22-73.61,16.89-10.16,99.95-50.76,99.95-71.63V-14.14Z"/><path class="cls-5" d="M1943.87-14.14V305.5c0,20.87-83.06,61.47-99.95,71.63-38.1,22.93-76.49,45.68-111.22,73.61-46,37-86,84.5-101.49,141.41-16.42,60.18-4.07,124.43,14.37,184,33.41,107.93,83.72,223.12,43,336.63a328.17,328.17,0,0,1-16,37.34H995.11c-14-180.78,224.33-181.39,312-262.35,34.65-32,61.89-79.64,49.09-125-7.61-26.95-28.65-48.83-53.48-61.78s-53.2-17.77-81.19-18.73q-6.1-.21-12.31-.2c-82.64,0-179.7,27.34-247.84,71.81-51.46,33.57-87.5,85.5-132.09,127.37a1061.55,1061.55,0,0,1-155.13,121C565.53,1071.65,441,1121.81,311.27,1129c-31,1.71-65.28,3.23-100.51,3.23-82.59,0-170.52-8.35-234.67-42.1V550.21l2.52-.41a392.25,392.25,0,0,1,59.32-4.38c75.55,0,148.46,19.85,222.9,37.63a460.91,460.91,0,0,0,106.92,12.77c87.75,0,174.2-26.27,243.79-83.7,61.9-51.07,105.63-121.38,136.11-195.61,26.05-63.4,43-130,58.62-196.58,5-21.31,20.31-134,49.31-134.07H1943.87m0-3H855.58c-12.13,0-22.73,15.28-32.41,46.66C815.51,54.34,810.1,83.6,806.52,103c-1.33,7.23-2.39,12.94-3.17,16.28-14.2,60.59-31.6,130.71-58.47,196.13-34.15,83.15-79.66,148.57-135.25,194.44-65.81,54.3-149.45,83-241.88,83a458.22,458.22,0,0,1-106.23-12.68c-7.9-1.89-15.91-3.83-23.66-5.71-64.92-15.74-132-32-199.93-32a392.85,392.85,0,0,0-59.77,4.41l-1.5.25-1.06.17a3,3,0,0,0-2.51,3v539.92a3,3,0,0,0,1.6,2.65c54.29,28.57,131.51,42.45,236.07,42.45,37.32,0,73.41-1.73,100.68-3.24,62.17-3.44,126.17-17,190.22-40.21,58.29-21.15,116.88-50.41,174.14-87A1066.69,1066.69,0,0,0,831.36,883.43c15.93-15,31-31.41,45.53-47.33,26.2-28.65,53.29-58.28,86.15-79.72,66.4-43.33,163-71.32,246.2-71.32,4.1,0,8.21.06,12.21.2,32.15,1.1,58.29,7.11,79.9,18.39,26.14,13.63,45.08,35.48,52,59.94,12.78,45.31-16.53,92.73-48.23,122-28.81,26.59-74,44.38-122,63.21-48.09,18.91-97.83,38.46-134.69,68.63-20.09,16.44-34.44,34.39-43.88,54.86-10.5,22.8-14.69,49.07-12.45,78.09a3,3,0,0,0,3,2.77h677.45a3,3,0,0,0,2.67-1.65,330.85,330.85,0,0,0,16.2-37.68c15.88-44.28,19.37-92.82,10.69-148.4-7.66-49.06-23.66-97.82-39.14-145-4.87-14.86-9.92-30.23-14.53-45.14C1632.59,724,1616.62,657,1634.11,592.94c13.7-50.2,47.51-97.26,100.47-139.86,33-26.54,70-48.77,105.71-70.26l5.18-3.12c3-1.78,8-4.52,14.41-8,14.4-7.82,36.16-19.65,53.95-31.48,22.54-15,33-26,33-34.72V-14.14a3,3,0,0,0-3-3Z"/></g></svg>